<?xml version="1.0" standalone="no"?><svg xmlns="http://www.w3.org/2000/svg" viewBox="0 0 1440 320"><path fill="#fff" fill-opacity="1" d="M0,96L40,101.3C80,107,160,117,240,133.3C320,149,400,171,480,192C560,213,640,235,720,224C800,213,880,171,960,160C1040,149,1120,171,1200,186.7C1280,203,1360,213,1400,218.7L1440,224L1440,320L1400,320C1360,320,1280,320,1200,320C1120,320,1040,320,960,320C880,320,800,320,720,320C640,320,560,320,480,320C400,320,320,320,240,320C160,320,80,320,40,320L0,320Z"></path></svg>